HIERARCHY
ROOT SpineBase
{
  OFFSET 0.000000 0.000000 0.000000
  CHANNELS 6 Xposition Yposition Zposition Zrotation Xrotation Yrotation
  JOINT SpineMid
  {
    OFFSET -0.000000 28.439112 0.000000
    CHANNELS 3 Zrotation Xrotation Yrotation
    JOINT SpineShoulder
    {
      OFFSET 0.071024 21.085085 -0.798050
      CHANNELS 3 Zrotation Xrotation Yrotation
      JOINT Neck
      {
        OFFSET 0.025083 6.967360 -0.558239
        CHANNELS 3 Zrotation Xrotation Yrotation
        JOINT Head
        {
          OFFSET 1.381935 13.946697 -3.354281
          CHANNELS 3 Zrotation Xrotation Yrotation
          End Site
          {
            OFFSET 0 0 0
          }
        }
      }
      JOINT ShoulderLeft
      {
        OFFSET -16.733832 -1.382445 0.837733
        CHANNELS 3 Zrotation Xrotation Yrotation
        JOINT ElbowLeft
        {
          OFFSET -5.362054 -24.167754 2.188621
          CHANNELS 3 Zrotation Xrotation Yrotation
          JOINT WristLeft
          {
            OFFSET 1.768653 -25.240639 -5.928766
            CHANNELS 3 Zrotation Xrotation Yrotation
            JOINT HandLeft
            {
              OFFSET 1.993334 -6.935468 -2.150858
              CHANNELS 3 Zrotation Xrotation Yrotation
              JOINT HandTipLeft
              {
                OFFSET 0.881699 -9.660267 -0.361615
                CHANNELS 3 Zrotation Xrotation Yrotation
                End Site
                {
                  OFFSET 0 0 0
                }
              }
              JOINT ThumbLeft
              {
                OFFSET 3.833690 0.648195 -3.253683
                CHANNELS 3 Zrotation Xrotation Yrotation
                End Site
                {
                  OFFSET 0 0 0
                }
              }
            }
          }
        }
      }
      JOINT ShoulderRight
      {
        OFFSET 16.542612 -3.645686 -1.669567
        CHANNELS 3 Zrotation Xrotation Yrotation
        JOINT ElbowRight
        {
          OFFSET 4.272504 -23.199122 2.065831
          CHANNELS 3 Zrotation Xrotation Yrotation
          JOINT WristRight
          {
            OFFSET -1.544198 -20.346210 -5.018931
            CHANNELS 3 Zrotation Xrotation Yrotation
            JOINT HandRight
            {
              OFFSET -4.108846 -9.255664 -2.744481
              CHANNELS 3 Zrotation Xrotation Yrotation
              JOINT HandTipRight
              {
                OFFSET -0.568539 -8.330467 -1.055137
                CHANNELS 3 Zrotation Xrotation Yrotation
                End Site
                {
                  OFFSET 0 0 0
                }
              }
              JOINT ThumbRight
              {
                OFFSET 2.395074 -4.436452 -2.634117
                CHANNELS 3 Zrotation Xrotation Yrotation
                End Site
                {
                  OFFSET 0 0 0
                }
              }
            }
          }
        }
      }
    }
  }
  JOINT HipLeft
  {
    OFFSET -7.739748 1.290788 -2.752702
    CHANNELS 3 Zrotation Xrotation Yrotation
    JOINT KneeLeft
    {
      OFFSET -2.818571 -33.140835 4.805503
      CHANNELS 3 Zrotation Xrotation Yrotation
      JOINT AnkleLeft
      {
        OFFSET 1.627248 -34.437160 13.517809
        CHANNELS 3 Zrotation Xrotation Yrotation
        JOINT FootLeft
        {
          OFFSET -0.944018 -4.565709 -13.726157
          CHANNELS 3 Zrotation Xrotation Yrotation
          End Site
          {
            OFFSET 0 0 0
          }
        }
      }
    }
  }
  JOINT HipRight
  {
    OFFSET 7.183845 0.476244 -3.779634
    CHANNELS 3 Zrotation Xrotation Yrotation
    JOINT KneeRight
    {
      OFFSET -0.471883 -32.897967 3.634027
      CHANNELS 3 Zrotation Xrotation Yrotation
      JOINT AnkleRight
      {
        OFFSET -1.529334 -34.067120 13.554986
        CHANNELS 3 Zrotation Xrotation Yrotation
        JOINT FootRight
        {
          OFFSET -1.070877 -4.560472 -13.714169
          CHANNELS 3 Zrotation Xrotation Yrotation
          End Site
          {
            OFFSET 0 0 0
          }
        }
      }
    }
  }
}
MOTION
Frames: 12
Frame Time: 0.033333
27.146959 76.297942 318.720587 0.000000 0.000000 3.936470 -0.000000 0.000000 -3.936470 -0.000000 0.000000 0.000000 -0.000000 0.000000 0.000000 0.000000 0.000000 0.000000 -0.000000 0.000000 0.000000 -0.000000 0.000000 0.000000 -0.000000 0.000000 0.000000 -0.000000 0.000000 0.000000 0.000000 0.000000 0.000000 0.000000 0.000000 0.000000 -0.000000 0.000000 0.000000 -0.000000 0.000000 0.000000 -0.000000 0.000000 0.000000 -0.000000 0.000000 0.000000 0.000000 0.000000 0.000000 0.000000 0.000000 0.000000 -0.000000 0.000000 -3.936470 -0.000000 0.000000 0.000000 -0.000000 0.000000 0.000000 0.000000 0.000000 0.000000 -0.000000 0.000000 -3.936470 -0.000000 0.000000 0.000000 -0.000000 0.000000 0.000000 0.000000 0.000000 0.000000
27.114937 75.608556 318.628675 -0.277604 0.071792 4.341465 0.271373 -0.092600 -4.341072 -0.000000 0.000000 0.000000 -0.000000 0.000000 0.000000 0.000000 0.000000 0.000000 -0.000000 0.000000 0.000000 -0.000000 0.000000 0.000000 -0.993342 -0.319851 0.214084 -0.968679 2.709921 0.124184 0.000000 0.000000 0.000000 0.000000 0.000000 0.000000 -0.000000 0.000000 0.000000 -0.847439 -0.237796 0.225325 0.848375 0.234435 -0.228819 -0.295729 1.010541 -0.028867 0.000000 0.000000 0.000000 0.000000 0.000000 0.000000 0.271373 -0.092600 -4.341072 -0.000000 0.000000 0.000000 -0.000000 0.000000 0.000000 0.000000 0.000000 0.000000 0.271373 -0.092600 -4.341072 -0.000000 0.000000 0.000000 -0.000000 0.000000 0.000000 0.000000 0.000000 0.000000
27.095541 74.999830 318.538859 -0.516395 0.123208 4.702239 0.504559 -0.165120 -4.700957 -0.000000 0.000000 0.000000 -0.000000 0.000000 0.000000 0.000000 0.000000 0.000000 0.405865 1.066366 -0.203953 -0.402136 -1.067777 0.196429 -1.763806 -0.592858 0.369748 -2.029692 5.167441 0.363716 0.000000 0.000000 0.000000 0.000000 0.000000 0.000000 -0.000000 0.000000 0.000000 -1.586384 -0.380729 0.414876 1.894502 -0.359229 -0.194422 -0.874557 2.476808 -0.259614 0.000000 0.000000 0.000000 0.000000 0.000000 0.000000 0.504559 -0.165120 -4.700957 -0.000000 0.000000 0.000000 -0.000000 0.000000 0.000000 0.000000 0.000000 0.000000 0.505268 -1.073827 -4.679673 -0.074850 0.905619 -0.020685 -0.000000 0.000000 0.000000 0.000000 0.000000 0.000000
27.088773 74.471765 318.451141 -0.718910 0.155185 5.019496 0.702581 -0.217477 -5.017189 -0.000000 0.000000 0.000000 -0.000000 0.000000 0.000000 0.000000 0.000000 0.000000 0.580117 1.437838 -0.274391 -0.573407 -1.440527 0.259902 -2.308163 -0.816233 0.468618 -3.092467 7.239458 0.670048 0.000000 0.000000 0.000000 0.000000 0.000000 0.000000 -0.000000 0.000000 0.000000 -2.230170 -0.434451 0.574401 2.546960 -0.770849 -0.160784 -1.132525 3.377192 -0.437342 0.000000 0.000000 0.000000 0.000000 0.000000 0.000000 0.533918 -1.165471 -4.950078 0.086248 0.959009 -0.069869 -0.244324 0.626592 0.596236 0.000000 0.000000 0.000000 0.669410 -1.493076 -4.990774 -0.077937 1.273648 -0.026044 -0.259526 0.602689 0.629981 0.000000 0.000000 0.000000
27.094631 74.024361 318.365520 -0.887205 0.168417 5.293917 0.867890 -0.249534 -5.290723 -0.000000 0.000000 0.000000 -0.000000 0.000000 0.000000 0.000000 0.000000 0.000000 0.736074 1.707550 -0.324087 -0.726730 -1.711547 0.302262 -2.622563 -0.987781 0.511676 -4.062149 8.803699 0.983835 0.000000 0.000000 0.000000 0.000000 0.000000 0.000000 -0.943687 -0.026764 -0.089318 -1.845188 -0.378980 0.798431 2.997358 -1.331439 -0.035120 -1.248653 4.025994 -0.657416 0.000000 0.000000 0.000000 0.000000 0.000000 0.000000 0.651380 -1.424018 -5.208407 0.109028 1.189282 -0.086610 -0.314265 0.765639 0.772619 0.000000 0.000000 0.000000 0.779110 -1.823966 -5.263491 -0.056030 1.575937 -0.028067 -0.333043 0.736852 0.814321 0.000000 0.000000 0.000000
27.113116 73.657617 318.281996 -1.022910 0.163380 5.526140 1.002432 -0.261097 -5.522398 -0.000000 0.000000 0.000000 0.870966 0.156817 0.192956 0.000000 0.000000 0.000000 0.874363 1.879231 -0.353257 -0.863229 -1.884370 0.324720 -2.702198 -1.105804 0.499135 -4.853265 9.762755 1.246387 0.000000 0.000000 0.000000 0.000000 0.000000 0.000000 -1.221432 0.003933 -0.108217 -2.050801 -0.296040 0.927906 3.240307 -2.038019 0.183238 -1.208673 4.397661 -0.926998 0.000000 0.000000 0.000000 0.000000 0.000000 0.000000 0.745242 -1.612011 -5.428569 0.128280 1.369176 -0.099565 -0.377212 0.867244 0.935629 0.000000 0.000000 0.000000 0.837211 -2.059726 -5.498919 -0.007873 1.806181 -0.026702 -0.398764 0.835281 0.983537 0.000000 0.000000 0.000000
27.156694 73.253502 318.204233 -1.141075 0.139767 5.729977 1.121429 -0.252960 -5.726109 -0.000000 0.000000 0.000000 1.176421 0.271911 0.253616 0.000000 0.000000 0.000000 1.025415 1.983567 -0.366323 -0.626012 -1.223627 0.303430 -2.737706 -1.922795 0.379136 -4.010476 9.351590 1.152740 0.000000 0.000000 0.000000 0.000000 0.000000 0.000000 -1.589849 0.036145 -0.134772 -2.277810 -0.040030 1.085148 3.361788 -3.135447 0.546800 -1.032633 5.295373 -1.354930 0.000000 0.000000 0.000000 0.000000 0.000000 0.000000 0.814716 -1.755166 -5.624475 0.158079 1.525018 -0.109113 -0.436618 0.927626 1.096777 0.000000 0.000000 0.000000 0.814595 -2.293785 -5.714610 0.102205 2.061218 -0.020158 -0.460218 0.895632 1.149119 0.000000 0.000000 0.000000
27.205456 73.020372 318.146075 -1.227854 0.102943 5.890054 1.210816 -0.228369 -5.886538 -0.000000 0.000000 0.000000 1.530165 0.484930 0.314246 0.000000 0.000000 0.000000 1.211579 1.939310 -0.342422 -0.809015 -0.952331 0.287754 -2.665804 -2.871482 0.108388 -4.672024 9.543489 1.455868 0.000000 0.000000 0.000000 0.000000 0.000000 0.000000 -1.956360 0.173655 -0.139738 -2.323045 0.152743 1.172109 3.229372 -4.821702 1.211422 0.237189 6.543902 -2.248598 0.000000 0.000000 0.000000 0.000000 0.000000 0.000000 0.891978 -1.828340 -5.776543 0.156266 1.623919 -0.117932 -0.478824 0.944005 1.217039 0.000000 0.000000 0.000000 0.758906 -2.349760 -5.891376 0.231992 2.156525 -0.009697 -0.503640 0.914909 1.271826 0.000000 0.000000 0.000000
27.258814 72.954240 318.073384 -1.253292 0.089110 5.987035 1.237169 -0.219316 -5.983692 -0.000000 0.000000 0.000000 1.667369 0.545272 0.339956 0.000000 0.000000 0.000000 1.325481 1.871720 -0.318211 -1.048691 -0.736837 0.296931 -2.106881 -2.776530 0.016971 -4.114057 8.620846 1.272377 0.000000 0.000000 0.000000 0.000000 0.000000 0.000000 -2.199349 0.379941 -0.119062 -2.316978 0.206292 1.191959 2.743108 -5.865553 1.693455 0.796520 5.043340 -2.667884 0.000000 0.000000 0.000000 0.000000 0.000000 0.000000 0.917384 -2.055979 -5.850515 0.131002 1.859675 -0.141654 -0.507130 0.948169 1.299206 0.000000 0.000000 0.000000 0.757582 -2.241903 -5.993791 0.265982 2.061557 -0.004988 -0.532530 0.923229 1.354559 0.000000 0.000000 0.000000
27.295498 73.107469 317.999761 -1.252327 0.009512 6.003070 0.433982 0.106315 -6.033710 0.831932 -0.160164 0.033190 1.764452 0.592119 0.357596 0.000000 0.000000 0.000000 1.275219 1.621391 -0.263303 -1.186230 -0.043708 0.318318 -0.854128 -3.615198 -0.477682 -4.269902 7.015354 1.381224 0.000000 0.000000 0.000000 0.000000 0.000000 0.000000 -2.356623 0.366396 -0.135419 -2.233247 0.464074 1.218357 2.759614 -7.012879 2.101295 1.586427 3.507491 -3.110569 0.000000 0.000000 0.000000 0.000000 0.000000 0.000000 0.886035 -2.203704 -5.851865 0.146343 2.089056 -0.159577 -0.537593 0.909280 1.397697 0.000000 0.000000 0.000000 0.709462 -1.792332 -6.025749 0.358822 1.698892 0.009963 -0.561897 0.882642 1.451433 0.000000 0.000000 0.000000
27.317984 73.029064 317.896653 -1.311259 -0.124592 6.066939 0.379566 0.078705 -6.103310 0.942134 0.006795 0.035582 1.875287 0.912423 0.346942 0.000000 0.000000 0.000000 1.215312 1.362297 -0.207363 -1.343101 0.595261 0.344092 -0.073680 -3.895156 -0.674514 -4.786146 7.279494 1.574044 0.000000 0.000000 0.000000 0.000000 0.000000 0.000000 -2.487177 0.273834 -0.165835 -2.014516 0.719892 1.224579 2.825627 -7.301458 2.158491 0.543634 2.378682 -2.860527 0.000000 0.000000 0.000000 0.000000 0.000000 0.000000 0.953925 -1.783295 -5.946589 0.178093 1.796667 -0.130097 -0.597144 1.034944 1.542989 0.000000 0.000000 0.000000 0.472836 -1.505153 -6.132083 1.521293 1.402113 0.363495 -1.457390 1.187863 1.261626 0.000000 0.000000 0.000000
27.327640 72.934101 317.789732 -1.419124 -0.281643 6.201838 0.328454 0.079484 -6.246030 0.149131 -0.138779 -0.035428 2.956597 1.757720 0.377093 0.000000 0.000000 0.000000 2.049365 1.486789 -0.106983 -1.391776 0.753767 0.353280 0.442214 -2.779050 -0.484240 -5.828890 6.620350 1.407120 0.000000 0.000000 0.000000 0.000000 0.000000 0.000000 -1.667162 0.324425 -0.143329 -1.179185 0.827434 1.125470 2.090221 -6.785686 2.171960 -0.255896 -0.327275 -2.453726 0.000000 0.000000 0.000000 0.000000 0.000000 0.000000 1.177560 -1.365247 -6.096043 0.627873 2.453803 0.116905 -1.231386 0.279901 1.566412 0.000000 0.000000 0.000000 0.584747 -1.177945 -6.273230 1.570910 0.603033 0.411981 -1.291705 4.041712 0.207881 0.000000 0.000000 0.000000
